<svg xmlns="http://www.w3.org/2000/svg" width="15.231" height="14.464" viewBox="0 0 16.463 16.464">
  <g id="Group_7969" data-name="Group 7969" transform="translate(-1020.962 -94.846)">
    <path id="Path_13639" data-name="Path 13639" d="M15.64,3.3H11.524V1.928A1.992,1.992,0,0,0,9.466.01H7A1.992,1.992,0,0,0,4.939,1.928V3.3H.823a.823.823,0,1,0,0,1.646h.823V14a2.469,2.469,0,0,0,2.469,2.469h8.231A2.469,2.469,0,0,0,14.816,14V4.948h.823a.823.823,0,0,0,0-1.646ZM6.585,1.928c0-.132.173-.272.412-.272H9.466c.239,0,.412.14.412.272V3.3H6.585ZM13.17,14a.823.823,0,0,1-.823.823H4.116A.823.823,0,0,1,3.293,14V4.948H13.17Z" transform="translate(1020.962 94.838)" fill="#5b6269"/>
    <g id="Group_7965" data-name="Group 7965" transform="translate(1026.335 101.794)">
      <path id="Path_13640" data-name="Path 13640" d="M6.9,14.409a.9.9,0,0,0,.9-.9V9.91a.9.9,0,1,0-1.8,0v3.6a.9.9,0,0,0,.9.9Z" transform="translate(-6 -9.01)" fill="#5b6269"/>
      <path id="Path_13641" data-name="Path 13641" d="M12.9,14.409a.9.9,0,0,0,.9-.9V9.91a.9.9,0,1,0-1.8,0v3.6a.9.9,0,0,0,.9.9Z" transform="translate(-8.083 -9.01)" fill="#5b6269"/>
    </g>
  </g>
</svg>
