<svg xmlns="http://www.w3.org/2000/svg" width="14.981" height="15.918" viewBox="0 0 14.981 15.918">
  <g id="overlay_color" data-name="overlay color" transform="translate(-3 -2.25)">
    <g id="icon_ic_download" data-name="icon/ic_download" transform="translate(3 2.25)">
      <rect id="Rectangle" width="14.981" height="1.873" rx="0.936" transform="translate(0 14.045)" fill="#5b6269"/>
      <rect id="Rectangle-2" data-name="Rectangle" width="3.745" height="1.873" rx="0.936" transform="translate(0 15.918) rotate(-90)" fill="#5b6269"/>
      <rect id="Rectangle-3" data-name="Rectangle" width="3.745" height="1.873" rx="0.936" transform="translate(13.109 15.918) rotate(-90)" fill="#5b6269"/>
      <path id="Path" d="M4.683,4.682a.936.936,0,0,1-.543-.169L.395,1.873A.937.937,0,1,1,1.481.346l3.2,2.238L7.867.187a.936.936,0,0,1,1.124,1.5L5.245,4.494A.936.936,0,0,1,4.683,4.682Z" transform="translate(2.808 6.554)" fill="#5b6269"/>
      <path id="Path-2" data-name="Path" d="M.936,9.363A.936.936,0,0,1,0,8.427V.936a.936.936,0,0,1,1.873,0V8.427A.936.936,0,0,1,.936,9.363Z" transform="translate(6.554)" fill="#5b6269"/>
    </g>
  </g>
</svg>
