<svg id="Group_7620" data-name="Group 7620" xmlns="http://www.w3.org/2000/svg" width="17.693" height="16.588" viewBox="0 0 17.693 16.588">
  <g id="card" transform="translate(0 6.035)">
    <path id="Path_13446" data-name="Path 13446" d="M10.316.76H3.426c-.2,0-.392.01-.573.01C1.123.87.66,1.5.66,3.476v.392a.754.754,0,0,0,.754.754h10.9a.754.754,0,0,0,.754-.754V3.476C13.073,1.3,12.519.76,10.316.76Z" transform="translate(-0.66 -0.76)" fill="#7a92a1"/>
    <path id="Path_13447" data-name="Path 13447" d="M1.424,5.7a.754.754,0,0,0-.754.754v2.1c0,2.173.553,2.726,2.756,2.726h6.89c2.163,0,2.736-.523,2.756-2.605V6.455a.754.754,0,0,0-.754-.754ZM4.291,9.492H3.034a.543.543,0,1,1,0-1.086H4.291a.543.543,0,0,1,0,1.086Zm4.074,0H5.86a.543.543,0,1,1,0-1.086h2.5a.541.541,0,0,1,.543.543A.535.535,0,0,1,8.365,9.492Z" transform="translate(-0.66 -0.731)" fill="#7a92a1"/>
  </g>
  <path id="Path_13449" data-name="Path 13449" d="M3.949,3.315a7.761,7.761,0,0,1,6,7.565.932.932,0,0,0,1.864,0,9.624,9.624,0,0,0-9.63-9.63.932.932,0,0,0-.8,1.411l1.3,2.175a.932.932,0,0,0,1.6-.959Z" transform="translate(5.882 -1.25)" fill="#7a92a1" fill-rule="evenodd"/>
</svg>
