<svg xmlns="http://www.w3.org/2000/svg" width="15.371" height="14.348" viewBox="0 0 15.371 14.348">
  <g id="surface1639032" transform="translate(-12 -13.99)">
    <path id="Path_13633" data-name="Path 13633" d="M19.418,14a3.845,3.845,0,0,0-2.281,6.722l-1.3,2.233a1.531,1.531,0,1,0,1.32,2.3,1.543,1.543,0,0,0,0-1.536l2.04-3.5-.672-.384a2.3,2.3,0,1,1,3.145-.84l1.344.768A3.85,3.85,0,0,0,19.418,14Zm.072,2.3a1.521,1.521,0,0,0-.576.192,1.55,1.55,0,0,0-.552,2.112,1.525,1.525,0,0,0,1.32.768l2.016,3.5.672-.384a2.3,2.3,0,1,1-.84,3.145l-1.344.768A3.85,3.85,0,1,0,22.3,20.841L21,18.609a1.546,1.546,0,0,0-1.512-2.3Zm-3.649,4.345a3.841,3.841,0,1,0,3.769,4.609H22.2a1.536,1.536,0,1,0,0-1.536H18.145v.768a2.3,2.3,0,1,1-2.3-2.3Zm0,0" transform="translate(0 0)" fill="#7a92a1"/>
  </g>
</svg>
