<svg id="Group_13" data-name="Group 13" xmlns="http://www.w3.org/2000/svg" width="20.406" height="17.563" viewBox="0 0 20.406 17.563">
  <path id="Path_13436" data-name="Path 13436" d="M0,1.706A1.706,1.706,0,0,1,1.706,0H12.513a1.706,1.706,0,0,1,1.706,1.706v13.65a1.706,1.706,0,0,1-1.706,1.706H1.706A1.706,1.706,0,0,1,0,15.356ZM2.844,6.4a.711.711,0,0,1,.711-.711h7.109a.711.711,0,1,1,0,1.422H3.555A.711.711,0,0,1,2.844,6.4Zm.711,2.844a.711.711,0,1,0,0,1.422H7.82a.711.711,0,1,0,0-1.422Z" transform="translate(0)" fill="#64747e" fill-rule="evenodd"/>
  <path id="Path_13437" data-name="Path 13437" d="M10.71,10.135,9.968,8.294,9.517,7.109a2.206,2.206,0,0,1-.1-1.116A2.275,2.275,0,0,1,9.878,4.96a2.5,2.5,0,0,1,.922-.718,2.976,2.976,0,0,1,2.347,0,2.5,2.5,0,0,1,.922.718,2.275,2.275,0,0,1,.462,1.034,2.206,2.206,0,0,1-.1,1.116l-.451,1.185-.742,1.841m-2.527,0H8.325a1.358,1.358,0,0,0-.928.342,1.179,1.179,0,0,0-.4.854v1.425a1.179,1.179,0,0,0,.4.854,1.357,1.357,0,0,0,.928.342h7.3a1.358,1.358,0,0,0,.928-.342,1.179,1.179,0,0,0,.4-.854V11.331a1.179,1.179,0,0,0-.4-.854,1.358,1.358,0,0,0-.928-.342H13.237m-2.527,0h0Z" transform="translate(2.953 3.109)" fill="#bed5e3" stroke="#fff" stroke-width="1"/>
</svg>
