<svg id="category-2" xmlns="http://www.w3.org/2000/svg" width="17.001" height="17" viewBox="0 0 17.001 17">
  <path id="Path_13415" data-name="Path 13415" d="M17.886,2H16.271A2.53,2.53,0,0,0,13.44,4.831V6.446a2.53,2.53,0,0,0,2.831,2.831h1.615a2.53,2.53,0,0,0,2.831-2.831V4.831A2.53,2.53,0,0,0,17.886,2Z" transform="translate(-3.716 -2)" fill="#64747e"/>
  <path id="Path_13416" data-name="Path 13416" d="M6.454,13.43H4.839A2.532,2.532,0,0,0,2,16.261v1.615a2.532,2.532,0,0,0,2.831,2.839H6.446a2.53,2.53,0,0,0,2.831-2.831V16.269A2.523,2.523,0,0,0,6.454,13.43Z" transform="translate(-2 -3.714)" fill="#64747e"/>
  <path id="Path_13417" data-name="Path 13417" d="M5.647,9.293A3.647,3.647,0,1,0,2,5.647,3.647,3.647,0,0,0,5.647,9.293Z" transform="translate(-2 -2)" fill="#bed5e3"/>
  <path id="Path_13418" data-name="Path 13418" d="M17.067,20.713a3.647,3.647,0,1,0-3.647-3.647A3.647,3.647,0,0,0,17.067,20.713Z" transform="translate(-3.713 -3.713)" fill="#bed5e3"/>
</svg>
