<svg id="store" xmlns="http://www.w3.org/2000/svg" width="15.738" height="17" viewBox="0 0 15.738 17">
  <path id="Path_13432" data-name="Path 13432" d="M15.377,3.818,13.237.48a1.078,1.078,0,0,0-.363-.349A.955.955,0,0,0,12.408,0H3.367A.934.934,0,0,0,2.9.128,1.056,1.056,0,0,0,2.538.48L.382,3.818A2.517,2.517,0,0,0,0,5.163,2.433,2.433,0,0,0,.351,6.5a2.065,2.065,0,0,0,.994.853A1.805,1.805,0,0,0,2.616,7.34a2.041,2.041,0,0,0,1-.868.406.406,0,0,1,.14-.142.354.354,0,0,1,.368,0,.406.406,0,0,1,.14.142,2.082,2.082,0,0,0,.709.727,1.83,1.83,0,0,0,.933.269,1.772,1.772,0,0,0,.937-.261,2.024,2.024,0,0,0,.7-.735.406.406,0,0,1,.14-.142.354.354,0,0,1,.368,0,.406.406,0,0,1,.14.142A2.083,2.083,0,0,0,8.9,7.2a1.831,1.831,0,0,0,.929.271,1.772,1.772,0,0,0,.937-.261,2.024,2.024,0,0,0,.7-.735.406.406,0,0,1,.14-.142.354.354,0,0,1,.367,0,.406.406,0,0,1,.14.142,2.025,2.025,0,0,0,1,.871,1.79,1.79,0,0,0,1.271.014,2.082,2.082,0,0,0,.991-.855,2.45,2.45,0,0,0,.352-1.339,2.4,2.4,0,0,0-.365-1.347Z" transform="translate(0 -0.001)" fill="#bed5e3"/>
  <path id="Path_13433" data-name="Path 13433" d="M13.86,9.775a2.773,2.773,0,0,1-1.647-.552.555.555,0,0,0-.652,0,2.781,2.781,0,0,1-1.632.552,2.715,2.715,0,0,1-1.651-.55.554.554,0,0,0-.651-.005,2.853,2.853,0,0,1-1.646.555,2.715,2.715,0,0,1-1.651-.55.554.554,0,0,0-.651-.005,2.853,2.853,0,0,1-1.646.555A2.675,2.675,0,0,1,1.1,9.609a.378.378,0,0,0-.5.315v7.54a.733.733,0,0,0,.182.479.594.594,0,0,0,.431.2H6.2V14.261a1.749,1.749,0,0,1,3.5,0v3.886h4.96a.594.594,0,0,0,.431-.2.733.733,0,0,0,.182-.479V9.925a.383.383,0,0,0-.5-.316,2.521,2.521,0,0,1-.912.166Z" transform="translate(-0.076 -1.146)" fill="#64747e" fill-rule="evenodd"/>
</svg>
