<svg xmlns="http://www.w3.org/2000/svg" width="22.107" height="24.588" viewBox="0 0 22.107 24.588">
  <g id="overlay_color" data-name="overlay color" transform="translate(-1258.507 -37.668)">
    <path id="Shape" d="M11.26,24.588c-.069,0-.137,0-.206,0s-.138,0-.206,0a4.71,4.71,0,0,1-4.712-4.5v-.418H2.006A2.016,2.016,0,0,1,.58,16.236l2.212-2.225V8.27A8.287,8.287,0,0,1,12.16.071a8.434,8.434,0,0,1,7.155,8.458v5.482l2.213,2.225A2.017,2.017,0,0,1,20.1,19.667H15.97v.418A4.71,4.71,0,0,1,11.26,24.588Zm-.206-2.462h0c.054,0,.109.006.163.006a2.311,2.311,0,0,0,2.3-2.048v-.417H8.595v.417a2.311,2.311,0,0,0,2.3,2.048C10.944,22.131,11,22.13,11.054,22.126Z" transform="translate(1258.507 37.668)" fill="#5b6269"/>
  </g>
</svg>
