<svg id="Group_12" data-name="Group 12" xmlns="http://www.w3.org/2000/svg" width="18.388" height="17" viewBox="0 0 18.388 17">
  <path id="Path_13434" data-name="Path 13434" d="M5.5,2H1.455A1.455,1.455,0,0,0,0,3.455V15.092a1.455,1.455,0,0,0,1.455,1.455H8.627L2.58,14.364A1.455,1.455,0,0,1,1.706,12.5Z" transform="translate(0 0.014)" fill="#bed5e3" fill-rule="evenodd"/>
  <path id="Path_13435" data-name="Path 13435" d="M6.415,1.295A1.455,1.455,0,0,1,8.28.427l8.655,3.158A1.455,1.455,0,0,1,17.8,5.449L13.815,16.382a1.455,1.455,0,0,1-1.865.868L3.295,14.092a1.455,1.455,0,0,1-.868-1.865Zm.907,4.589A.606.606,0,0,1,8.1,5.522L13.793,7.6a.606.606,0,0,1-.415,1.139L7.683,6.661A.606.606,0,0,1,7.322,5.884ZM7.06,8.369a.606.606,0,1,0-.415,1.139l3.416,1.246a.606.606,0,1,0,.415-1.139Z" transform="translate(0.496 -0.338)" fill="#64747e" fill-rule="evenodd"/>
</svg>
