<svg id="receipt-text" xmlns="http://www.w3.org/2000/svg" width="16.921" height="17" viewBox="0 0 16.921 17">
  <path id="Path_13427" data-name="Path 13427" d="M6.13,2H5.3C2.826,2,2,3.478,2,5.3V17.693a.823.823,0,0,0,1.322.661L4.734,17.3a.832.832,0,0,1,1.09.083L7.2,18.758a.833.833,0,0,0,1.173,0l1.388-1.388a.819.819,0,0,1,1.074-.074l1.412,1.057a.828.828,0,0,0,1.322-.661V3.652A1.657,1.657,0,0,1,15.215,2Zm3.51,9.7H5.923a.619.619,0,1,1,0-1.239H9.64a.619.619,0,1,1,0,1.239Zm.619-3.3H5.3a.619.619,0,0,1,0-1.239h4.956a.619.619,0,1,1,0,1.239Z" transform="translate(-2 -2)" fill="#64747e"/>
  <path id="Path_13428" data-name="Path 13428" d="M17.534,2C18.038,3.145,18.657,4.126,17.534,2Zm0,0A1.535,1.535,0,0,0,16,3.534V8.871h2.611A1.836,1.836,0,0,0,20.58,6.9V5.054A3.049,3.049,0,0,0,17.534,2Z" transform="translate(-3.659 -1.223)" fill="#bed5e3" fill-rule="evenodd"/>
</svg>
 